TITLE ""
FILE "P1Q_t_0901-0909.mp3" MP3
  TRACK 01 AUDIO
    TITLE "P1Q_t_0901-0909_01"
    INDEX 01 00:00:00
  TRACK 02 AUDIO
    TITLE "P1Q_t_0901-0909_02"
    INDEX 01 00:00:08
  TRACK 03 AUDIO
    TITLE "P1Q_t_0901-0909_03"
    INDEX 01 00:01:55
  TRACK 04 AUDIO
    TITLE "P1Q_t_0901-0909_04"
    INDEX 01 00:02:27
  TRACK 05 AUDIO
    TITLE "P1Q_t_0901-0909_05"
    INDEX 01 00:03:30
  TRACK 06 AUDIO
    TITLE "P1Q_t_0901-0909_06"
    INDEX 01 00:03:75
  TRACK 07 AUDIO
    TITLE "P1Q_t_0901-0909_07"
    INDEX 01 00:05:17
  TRACK 08 AUDIO
    TITLE "P1Q_t_0901-0909_08"
    INDEX 01 00:05:43
  TRACK 09 AUDIO
    TITLE "P1Q_t_0901-0909_09"
    INDEX 01 00:08:08
  TRACK 10 AUDIO
    TITLE "P1Q_t_0901-0909_10"
    INDEX 01 00:08:27
  TRACK 11 AUDIO
    TITLE "P1Q_t_0901-0909_11"
    INDEX 01 00:13:50
  TRACK 12 AUDIO
    TITLE "P1Q_t_0901-0909_12"
    INDEX 01 00:14:20
  TRACK 13 AUDIO
    TITLE "P1Q_t_0901-0909_13"
    INDEX 01 00:15:47
  TRACK 14 AUDIO
    TITLE "P1Q_t_0901-0909_14"
    INDEX 01 00:15:71
  TRACK 15 AUDIO
    TITLE "P1Q_t_0901-0909_15"
    INDEX 01 00:18:53
  TRACK 16 AUDIO
    TITLE "P1Q_t_0901-0909_16"
    INDEX 01 00:18:73
  TRACK 17 AUDIO
    TITLE "P1Q_t_0901-0909_17"
    INDEX 01 00:23:62
  TRACK 18 AUDIO
    TITLE "P1Q_t_0901-0909_18"
    INDEX 01 00:24:32
  TRACK 19 AUDIO
    TITLE "P1Q_t_0901-0909_19"
    INDEX 01 00:25:38
  TRACK 20 AUDIO
    TITLE "P1Q_t_0901-0909_20"
    INDEX 01 00:25:59
  TRACK 21 AUDIO
    TITLE "P1Q_t_0901-0909_21"
    INDEX 01 00:28:67
  TRACK 22 AUDIO
    TITLE "P1Q_t_0901-0909_22"
    INDEX 01 00:29:10
  TRACK 23 AUDIO
    TITLE "P1Q_t_0901-0909_23"
    INDEX 01 00:34:50
  TRACK 24 AUDIO
    TITLE "P1Q_t_0901-0909_24"
    INDEX 01 00:35:20
  TRACK 25 AUDIO
    TITLE "P1Q_t_0901-0909_25"
    INDEX 01 00:36:24
  TRACK 26 AUDIO
    TITLE "P1Q_t_0901-0909_26"
    INDEX 01 00:36:45
  TRACK 27 AUDIO
    TITLE "P1Q_t_0901-0909_27"
    INDEX 01 00:39:67
  TRACK 28 AUDIO
    TITLE "P1Q_t_0901-0909_28"
    INDEX 01 00:40:12
  TRACK 29 AUDIO
    TITLE "P1Q_t_0901-0909_29"
    INDEX 01 00:44:35
  TRACK 30 AUDIO
    TITLE "P1Q_t_0901-0909_30"
    INDEX 01 00:45:07
  TRACK 31 AUDIO
    TITLE "P1Q_t_0901-0909_31"
    INDEX 01 00:46:10
  TRACK 32 AUDIO
    TITLE "P1Q_t_0901-0909_32"
    INDEX 01 00:46:32
  TRACK 33 AUDIO
    TITLE "P1Q_t_0901-0909_33"
    INDEX 01 00:47:71
  TRACK 34 AUDIO
    TITLE "P1Q_t_0901-0909_34"
    INDEX 01 00:48:15
  TRACK 35 AUDIO
    TITLE "P1Q_t_0901-0909_35"
    INDEX 01 00:53:07
  TRACK 36 AUDIO
    TITLE "P1Q_t_0901-0909_36"
    INDEX 01 00:53:54
  TRACK 37 AUDIO
    TITLE "P1Q_t_0901-0909_37"
    INDEX 01 00:54:65
  TRACK 38 AUDIO
    TITLE "P1Q_t_0901-0909_38"
    INDEX 01 00:55:11
  TRACK 39 AUDIO
    TITLE "P1Q_t_0901-0909_39"
    INDEX 01 00:56:54
  TRACK 40 AUDIO
    TITLE "P1Q_t_0901-0909_40"
    INDEX 01 00:56:73
  TRACK 41 AUDIO
    TITLE "P1Q_t_0901-0909_41"
    INDEX 01 01:02:04
  TRACK 42 AUDIO
    TITLE "P1Q_t_0901-0909_42"
    INDEX 01 01:02:51
  TRACK 43 AUDIO
    TITLE "P1Q_t_0901-0909_43"
    INDEX 01 01:03:60
  TRACK 44 AUDIO
    TITLE "P1Q_t_0901-0909_44"
    INDEX 01 01:04:06
  TRACK 45 AUDIO
    TITLE "P1Q_t_0901-0909_45"
    INDEX 01 01:05:39
  TRACK 46 AUDIO
    TITLE "P1Q_t_0901-0909_46"
    INDEX 01 01:05:59
  TRACK 47 AUDIO
    TITLE "P1Q_t_0901-0909_47"
    INDEX 01 01:09:55
  TRACK 48 AUDIO
    TITLE "P1Q_t_0901-0909_48"
    INDEX 01 01:10:27
  TRACK 49 AUDIO
    TITLE "P1Q_t_0901-0909_49"
    INDEX 01 01:11:46
  TRACK 50 AUDIO
    TITLE "P1Q_t_0901-0909_50"
    INDEX 01 01:11:67
  TRACK 51 AUDIO
    TITLE "P1Q_t_0901-0909_51"
    INDEX 01 01:13:23
  TRACK 52 AUDIO
    TITLE "P1Q_t_0901-0909_52"
    INDEX 01 01:13:45
  TRACK 53 AUDIO
    TITLE "P1Q_t_0901-0909_53"
    INDEX 01 01:17:50
  TRACK 54 AUDIO
    TITLE "P1Q_t_0901-0909_54"
    INDEX 01 01:18:26
  TRACK 55 AUDIO
    TITLE "P1Q_t_0901-0909_55"
    INDEX 01 01:19:43
  TRACK 56 AUDIO
    TITLE "P1Q_t_0901-0909_56"
    INDEX 01 01:19:63
  TRACK 57 AUDIO
    TITLE "P1Q_t_0901-0909_57"
    INDEX 01 01:22:69
  TRACK 58 AUDIO
    TITLE "P1Q_t_0901-0909_58"
    INDEX 01 01:23:16
  TRACK 59 AUDIO
    TITLE "P1Q_t_0901-0909_59"
    INDEX 01 01:26:61
